<svg xmlns="http://www.w3.org/2000/svg" viewBox="0 0 516 513"><defs><style>.cls-1,.cls-2{font-size:88.27px;}.cls-1{font-family:WindsorBT-Roman, Windsor BT;}.cls-2{font-family:MyriadPro-Regular, Myriad Pro;}</style></defs><g id="Ebene_2" data-name="Ebene 2"><g id="Ebene_1-2" data-name="Ebene 1"><text class="cls-1" transform="matrix(1, -0.11, 0.11, 0.99, 214.72, 79.08)">s</text><text class="cls-1" transform="translate(257.99 73.57) rotate(8.23) scale(1.01 1)">a</text><text class="cls-1" transform="matrix(0.93, 0.39, -0.39, 0.92, 307.52, 80.58)">y</text><text class="cls-1" transform="translate(349.22 99.1) rotate(34.07) scale(1.01 1)"> </text><text class="cls-1" transform="translate(370.71 111.67) rotate(45.82) scale(1.01 1)">h</text><text class="cls-1" transform="translate(405.63 147.52) rotate(60.48) scale(1.01 1)">e</text><text class="cls-1" transform="translate(427.58 185.23) rotate(74.57) scale(1.01 1)">y</text><text class="cls-1" transform="translate(438.99 229.33) rotate(85.79) scale(1.01 1)"> </text><text class="cls-2" transform="translate(440.72 255.2) rotate(92.48) scale(1.01 1)">·</text><text class="cls-2" transform="translate(440.07 272.17) rotate(97.93) scale(1.01 1)"> </text><text class="cls-1" transform="translate(439.19 288.7) rotate(107.69) scale(1.01 1)">c</text><text class="cls-1" transform="translate(426.77 330.49) rotate(122.51) scale(1.01 1)">o</text><text class="cls-1" transform="matrix(-0.75, 0.67, -0.67, -0.74, 400.41, 372.78)">n</text><text class="cls-1" transform="matrix(-0.88, 0.49, -0.49, -0.87, 362.52, 405.86)">t</text><text class="cls-1" transform="translate(336.24 422.24) rotate(163.43) scale(1.01 1)">a</text><text class="cls-1" transform="matrix(-1.01, 0.04, -0.04, -1, 288.24, 436.54)">c</text><text class="cls-1" transform="matrix(-0.99, -0.17, 0.17, -0.99, 244.1, 437.77)">t</text><text class="cls-1" transform="translate(212.86 432.47) rotate(-161.54) scale(1.01 1)"> </text><text class="cls-2" transform="matrix(-0.91, -0.43, 0.43, -0.91, 188.34, 424.1)">·</text><text class="cls-1" transform="matrix(-0.86, -0.53, 0.53, -0.85, 173.07, 417.35)"> </text><text class="cls-1" transform="matrix(-0.68, -0.74, 0.74, -0.67, 150.13, 408)">m</text><text class="cls-1" transform="matrix(-0.4, -0.92, 0.92, -0.4, 100.01, 350.18)">e</text><text class="cls-1" transform="translate(82.1 310.39) rotate(-99.77) scale(1.01 1)">s</text><text class="cls-1" transform="translate(74.31 267.42) rotate(-86.05) scale(1.01 1)">s</text><text class="cls-1" transform="matrix(0.33, -0.95, 0.95, 0.32, 76.4, 223.95)">a</text><text class="cls-1" transform="translate(92.12 176.6) rotate(-55.67) scale(1.01 1)">g</text><text class="cls-1" transform="matrix(0.76, -0.67, 0.66, 0.75, 119.34, 136.52)">e</text><text class="cls-1" transform="translate(153 107.8) rotate(-30.5) scale(1.01 1)"> </text><text class="cls-2" transform="translate(175.41 94.79) rotate(-23.83) scale(1.01 1)">·</text><text class="cls-2" transform="translate(190.94 87.85) rotate(-18.41) scale(1.01 1)"> </text><text class="cls-1" transform="matrix(0.99, -0.2, 0.2, 0.98, 207.07, 82.1)"> </text></g></g></svg>