<svg xmlns="http://www.w3.org/2000/svg" viewBox="0 0 516 513">
  <defs>
    <style>
      .hey__cls-1,.hey__cls-2{font-size:88.27px}.hey__cls-1{font-family:windsor_btroman}.hey__cls-2{font-family:mark_pro}
    </style>
  </defs>
  <g id="Ebene_2" data-name="Ebene 2">
    <g id="Ebene_1-2" data-name="Ebene 1">
      <text class="hey__cls-1" transform="matrix(1 -.11 .11 .99 214.72 79.08)">
        s
      </text>
      <text class="hey__cls-1" transform="matrix(.9996 .14458 -.14315 .9897 257.99 73.57)">
        a
      </text>
      <text class="hey__cls-1" transform="matrix(.93 .39 -.39 .92 307.52 80.58)">
        y
      </text>
      <text class="hey__cls-1" transform="rotate(45.82 53.24 494.418) scale(1.01 1)">
        h
      </text>
      <text class="hey__cls-1" transform="rotate(60.48 76.286 421.672) scale(1.01 1)">
        e
      </text>
      <text class="hey__cls-1" transform="rotate(74.57 92.15 373.407) scale(1.01 1)">
        y
      </text>
      <text class="hey__cls-2" transform="matrix(-.0437 1.00905 -.99906 -.04327 440.72 255.2)">
        ·
      </text>
      <text class="hey__cls-1" transform="rotate(107.69 114.12 304.805) scale(1.01 1)">
        c
      </text>
      <text class="hey__cls-1" transform="rotate(122.51 122.747 282.288) scale(1.01 1)">
        o
      </text>
      <text class="hey__cls-1" transform="matrix(-.75 .67 -.67 -.74 400.41 372.78)">
        n
      </text>
      <text class="hey__cls-1" transform="matrix(-.88 .49 -.49 -.87 362.52 405.86)">
        t
      </text>
      <text class="hey__cls-1" transform="rotate(163.43 137.377 235.601) scale(1.01 1)">
        a
      </text>
      <text class="hey__cls-1" transform="matrix(-1.01 .04 -.04 -1 288.24 436.54)">
        c
      </text>
      <text class="hey__cls-1" transform="matrix(-.99 -.17 .17 -.99 244.1 437.77)">
        t
      </text>
      <text class="hey__cls-2" transform="matrix(-.91 -.43 .43 -.91 188.34 424.1)">
        ·
      </text>
      <text class="hey__cls-1" transform="matrix(-.68 -.74 .74 -.67 150.13 408)">
        m
      </text>
      <text class="hey__cls-1" transform="matrix(-.4 -.92 .92 -.4 100.01 350.18)">
        e
      </text>
      <text class="hey__cls-1" transform="rotate(-99.77 171.806 120.61) scale(1.01 1)">
        s
      </text>
      <text class="hey__cls-1" transform="matrix(.06957 -1.0076 .99762 .06889 74.31 267.42)">
        s
      </text>
      <text class="hey__cls-1" transform="matrix(.33 -.95 .95 .32 76.4 223.95)">
        a
      </text>
      <text class="hey__cls-1" transform="matrix(.5696 -.83406 .8258 .56396 92.12 176.6)">
        g
      </text>
      <text class="hey__cls-1" transform="matrix(.76 -.67 .66 .75 119.34 136.52)">
        e
      </text>
      <text class="hey__cls-2" transform="matrix(.9239 -.40806 .40402 .91475 175.41 94.79)">
        ·
      </text>
    </g>
  </g>
</svg>
