<svg xmlns="http://www.w3.org/2000/svg" viewBox="0 0 395.95 279.14">
  <defs>
    <style>
      .cls-1,.cls-2{font-size:127px;font-family:PoliteType}.cls-2{font-size:40.08px}
    </style>
  </defs>
  <g id="Ebene_2" data-name="Ebene 2">
    <g id="Ebene_1-2" data-name="Ebene 1">
      <text class="cls-1" transform="rotate(18.15 -299.406 187.178)">
        @
      </text>
      <text class="cls-1" transform="rotate(18.15 -224.08 674.849)">
        @
      </text>
      <text class="cls-2" transform="matrix(.35 .47 -.8 .6 8.4 179.35)">
        c
      </text>
      <text class="cls-2" transform="matrix(.39 .44 -.75 .66 16.93 190.76)">
        h
      </text>
      <text class="cls-2" transform="rotate(44.29 -235.17 135.347) scale(.59 1)">
        r
      </text>
      <text class="cls-2" transform="matrix(.44 .39 -.66 .75 35.56 210.27)">
        i
      </text>
      <text class="cls-2" transform="matrix(.46 .37 -.63 .78 40.9 215.07)">
        s
      </text>
      <text class="cls-2" transform="matrix(.48182 .34052 -.57715 .81664 51.23 223.28)">
        t
      </text>
      <text class="cls-2" transform="matrix(.5 .31 -.52 .85 61.28 230.39)">
        o
      </text>
      <text class="cls-2" transform="rotate(27.35 -453.065 273.483) scale(.59 1)">
        p
      </text>
      <text class="cls-2" transform="rotate(23.36 -550.692 339.967) scale(.59 1)">
        h
      </text>
      <text class="cls-2" transform="matrix(.55 .21 -.35 .94 103.81 252.2)">
        .
      </text>
      <text class="cls-2" transform="rotate(18.32 -734.728 470.117) scale(.59 1)">
        s
      </text>
      <text class="cls-2" transform="matrix(.57 .15 -.26 .97 123.02 258.9)">
        a
      </text>
      <text class="cls-2" transform="matrix(.57628 .1265 -.2144 .97675 138.32 262.86)">
        i
      </text>
      <text class="cls-2" transform="rotate(10.91 -1311.237 890.012) scale(.59 1)">
        l
      </text>
      <text class="cls-2" transform="rotate(8.59 -1692.62 1141.563) scale(.59 1)">
        e
      </text>
      <text class="cls-2" transform="matrix(.58694 .06003 -.10175 .99481 165.82 267.7)">
        (
      </text>
      <text class="cls-2" transform="rotate(3.19 -4738.157 3287.886) scale(.59 1)">
        a
      </text>
      <text class="cls-2" transform="rotate(.73 -21057.185 15150.755) scale(.59 1)">
        t
      </text>
      <text class="cls-2" transform="matrix(.59 -.02 .04 1 203.36 269.58)">
        )
      </text>
      <text class="cls-2" transform="rotate(-4.99 3196.163 -2324.004) scale(.59 1)">
        g
      </text>
      <text class="cls-2" transform="rotate(-8.43 1931.66 -1428.434) scale(.59 1)">
        o
      </text>
      <text class="cls-2" transform="matrix(.57732 -.12166 .2062 .9785 245.82 265.4)">
        o
      </text>
      <text class="cls-2" transform="rotate(-15.5 1093.599 -828.76) scale(.59 1)">
        g
      </text>
      <text class="cls-2" transform="matrix(.56074 -.1835 .311 .9504 276.37 257.78)">
        l
      </text>
      <text class="cls-2" transform="rotate(-20.62 844.218 -650.247) scale(.59 1)">
        e
      </text>
      <text class="cls-2" transform="rotate(-25.45 703.05 -533.568) scale(.59 1)">
        m
      </text>
      <text class="cls-2" transform="rotate(-30.75 595.214 -461.96) scale(.59 1)">
        a
      </text>
      <text class="cls-2" transform="matrix(.49 -.33 .56 .83 333.61 231.04)">
        i
      </text>
      <text class="cls-2" transform="rotate(-35.62 523.346 -414.213) scale(.59 1)">
        l
      </text>
      <text class="cls-2" transform="rotate(-37.51 501.224 -395.813) scale(.59 1)">
        .
      </text>
      <text class="cls-2" transform="rotate(-40.38 472.973 -366.936) scale(.59 1)">
        c
      </text>
      <text class="cls-2" transform="rotate(-44.74 435.627 -333.436) scale(.59 1)">
        o
      </text>
      <text class="cls-2" transform="rotate(-51.36 392.492 -288.995) scale(.59 1)">
        m
      </text>
    </g>
  </g>
</svg>
