<svg xmlns="http://www.w3.org/2000/svg" viewBox="0 0 395.95 279.14"><defs><style>.cls-1{font-size:127px;}.cls-1,.cls-2{font-family:MarkPro, Mark Pro;}.cls-2{font-size:40.08px;}</style></defs><g id="Ebene_2" data-name="Ebene 2"><g id="Ebene_1-2" data-name="Ebene 1"><text class="cls-1" transform="translate(43.41 102.58) rotate(18.15)">@</text><text class="cls-1" transform="translate(199.07 103.38) rotate(18.15)">@</text><text class="cls-2" transform="matrix(0.35, 0.47, -0.8, 0.6, 8.4, 179.35)">c</text><text class="cls-2" transform="matrix(0.39, 0.44, -0.75, 0.66, 16.93, 190.76)">h</text><text class="cls-2" transform="translate(27.68 202.68) rotate(44.29) scale(0.59 1)">r</text><text class="cls-2" transform="matrix(0.44, 0.39, -0.66, 0.75, 35.56, 210.27)">i</text><text class="cls-2" transform="matrix(0.46, 0.37, -0.63, 0.78, 40.9, 215.07)">s</text><text class="cls-2" transform="translate(51.23 223.28) rotate(35.25) scale(0.59 1)">t</text><text class="cls-2" transform="matrix(0.5, 0.31, -0.52, 0.85, 61.28, 230.39)">o</text><text class="cls-2" transform="translate(75 238.72) rotate(27.35) scale(0.59 1)">p</text><text class="cls-2" transform="translate(89.66 246.22) rotate(23.36) scale(0.59 1)">h</text><text class="cls-2" transform="matrix(0.55, 0.21, -0.35, 0.94, 103.81, 252.2)">.</text><text class="cls-2" transform="translate(110.53 254.77) rotate(18.32) scale(0.59 1)">s</text><text class="cls-2" transform="matrix(0.57, 0.15, -0.26, 0.97, 123.02, 258.9)">a</text><text class="cls-2" transform="translate(138.32 262.86) rotate(12.38) scale(0.59 1)">i</text><text class="cls-2" transform="translate(144.75 264.26) rotate(10.91) scale(0.59 1)">l</text><text class="cls-2" transform="translate(151.52 265.62) rotate(8.59) scale(0.59 1)">e</text><text class="cls-2" transform="translate(165.82 267.7) rotate(5.84) scale(0.59 1)">(</text><text class="cls-2" transform="translate(175.62 268.76) rotate(3.19) scale(0.59 1)">a</text><text class="cls-2" transform="translate(191.32 269.51) rotate(0.73) scale(0.59 1)">t</text><text class="cls-2" transform="matrix(0.59, -0.02, 0.04, 1, 203.36, 269.58)">)</text><text class="cls-2" transform="translate(214.26 269.2) rotate(-4.99) scale(0.59 1)">g</text><text class="cls-2" transform="translate(230.28 267.75) rotate(-8.43) scale(0.59 1)">o</text><text class="cls-2" transform="translate(245.82 265.4) rotate(-11.9) scale(0.59 1)">o</text><text class="cls-2" transform="translate(261.25 262.11) rotate(-15.5) scale(0.59 1)">g</text><text class="cls-2" transform="translate(276.37 257.78) rotate(-18.12) scale(0.59 1)">l</text><text class="cls-2" transform="translate(283.08 255.65) rotate(-20.62) scale(0.59 1)">e</text><text class="cls-2" transform="translate(297.51 250.34) rotate(-25.45) scale(0.59 1)">m</text><text class="cls-2" transform="translate(319.88 239.38) rotate(-30.75) scale(0.59 1)">a</text><text class="cls-2" transform="matrix(0.49, -0.33, 0.56, 0.83, 333.61, 231.04)">i</text><text class="cls-2" transform="translate(339.16 227.3) rotate(-35.62) scale(0.59 1)">l</text><text class="cls-2" transform="translate(344.64 223.36) rotate(-37.51) scale(0.59 1)">.</text><text class="cls-2" transform="translate(350.4 219) rotate(-40.38) scale(0.59 1)">c</text><text class="cls-2" transform="translate(360.9 210.04) rotate(-44.74) scale(0.59 1)">o</text><text class="cls-2" transform="translate(373.14 198.03) rotate(-51.36) scale(0.59 1)">m</text></g></g></svg>