<?xml version="1.0" standalone="no"?>
<!DOCTYPE svg PUBLIC "-//W3C//DTD SVG 20010904//EN"
 "http://www.w3.org/TR/2001/REC-SVG-20010904/DTD/svg10.dtd">
<svg version="1.0" xmlns="http://www.w3.org/2000/svg"
 width="512.000000pt" height="512.000000pt" viewBox="0 0 512.000000 512.000000"
 preserveAspectRatio="xMidYMid meet">
<metadata>
Created by potrace 1.14, written by Peter Selinger 2001-2017
</metadata>
<g transform="translate(0.000000,512.000000) scale(0.100000,-0.100000)"
fill="#000000" stroke="none">
<path d="M0 2560 l0 -2560 2560 0 2560 0 0 2560 0 2560 -2560 0 -2560 0 0
-2560z m3229 2120 c192 -35 241 -50 288 -86 49 -37 73 -81 73 -134 0 -88 -66
-146 -178 -157 l-55 -6 30 -26 c28 -24 166 -221 160 -228 -2 -1 -34 3 -73 10
l-69 13 -85 126 -85 125 -60 12 c-33 6 -71 14 -84 17 -21 6 -22 4 -16 -16 7
-22 -11 -168 -23 -187 -8 -13 -122 4 -122 18 0 9 86 487 95 527 3 12 13 22 22
22 9 0 91 -14 182 -30z m-503 -269 c99 -255 102 -262 81 -270 -12 -5 -39 -16
-60 -24 l-38 -16 -10 27 c-10 25 -64 171 -74 199 -3 9 -17 5 -47 -11 -35 -19
-299 -120 -345 -132 -7 -2 3 -36 29 -96 55 -129 55 -135 -10 -160 -29 -11 -55
-18 -56 -16 -3 3 -121 306 -182 465 l-24 63 38 16 c74 31 80 28 117 -63 18
-46 36 -96 40 -113 7 -34 16 -36 48 -15 31 20 313 125 337 125 27 0 33 16 16
42 -8 13 -22 41 -30 63 -7 22 -23 63 -34 91 l-21 52 52 20 c29 11 56 19 62 18
5 -2 56 -121 111 -265z m1262 -40 l43 -37 -177 -220 c-97 -120 -178 -221 -180
-223 -5 -5 -94 68 -94 78 0 10 349 441 358 441 4 -1 26 -18 50 -39z m-2188
-172 c0 -5 -5 -30 -11 -53 -10 -41 -13 -44 -52 -50 -104 -17 -214 -103 -267
-209 -49 -99 -38 -182 33 -244 134 -117 381 24 457 260 l12 38 46 -7 c26 -4
49 -8 51 -10 9 -8 -20 -82 -56 -143 -100 -170 -278 -291 -428 -291 -111 0
-194 51 -236 145 -26 56 -25 159 2 227 44 111 165 245 272 300 80 41 177 62
177 37z m2455 -183 c110 -46 225 -259 225 -416 0 -80 -8 -88 -60 -59 l-42 24
-1 80 c-2 69 -7 90 -35 147 -47 96 -113 141 -150 104 -24 -23 -19 -79 17 -216
56 -209 38 -291 -67 -315 -51 -11 -133 34 -181 98 -53 71 -98 164 -116 239
-16 69 -20 194 -6 202 5 3 28 -1 53 -9 l44 -15 -4 -70 c-9 -162 103 -358 183
-322 39 18 39 57 0 205 -52 204 -45 291 28 322 41 18 70 18 112 1z m-3317
-771 c3 -3 -99 -252 -165 -402 -3 -9 4 -13 21 -13 34 0 96 -26 96 -39 0 -18
20 -12 27 7 3 9 32 82 65 162 33 80 64 155 69 167 8 22 9 22 46 7 21 -9 39
-17 41 -19 4 -4 -127 -316 -144 -342 -19 -31 -18 -33 16 -33 32 0 82 -21 112
-48 16 -13 18 -13 24 4 13 40 157 389 164 397 4 5 24 1 45 -7 29 -12 36 -20
31 -33 -38 -101 -212 -503 -218 -503 -8 0 -510 209 -516 215 -2 2 45 118 103
259 l107 255 36 -15 c20 -8 38 -17 40 -19z m3645 28 c3 -5 -2 -153 -11 -330
l-16 -323 -43 0 -43 0 0 83 c0 46 7 106 15 133 8 27 15 49 15 50 0 1 -75 4
-167 8 -93 3 -205 9 -250 13 l-83 6 0 58 c0 32 3 60 8 62 11 6 467 -19 479
-26 15 -9 22 14 12 38 -10 25 -11 113 -3 183 l7 52 38 0 c21 0 40 -3 42 -7z
m-351 -715 c91 -27 162 -127 174 -245 18 -181 -111 -425 -264 -500 -104 -51
-221 -34 -294 44 -68 71 -95 211 -64 333 67 263 263 424 448 368z m-3085 -102
c5 -3 -31 -502 -36 -508 -4 -5 -130 1 -281 12 -151 11 -278 20 -282 20 -5 0 1
120 6 126 4 4 464 -34 476 -40 13 -5 15 13 16 131 1 76 4 168 8 205 l8 68 41
-6 c23 -4 43 -7 44 -8z m2653 -795 c85 -79 168 -156 183 -171 l29 -27 -146
-156 c-109 -115 -159 -162 -198 -181 -93 -46 -175 -30 -232 47 -30 41 -29 126
3 191 14 29 68 95 128 156 57 59 103 110 103 114 0 3 -8 6 -17 6 -10 1 -47 28
-82 61 l-64 60 43 44 44 45 25 -23 c14 -12 95 -87 181 -166z m-2644 122 c3
-16 10 -43 14 -61 6 -23 5 -34 -3 -37 -7 -2 -124 -31 -262 -65 -137 -33 -257
-63 -266 -66 -13 -3 -19 8 -29 56 -7 33 -11 63 -8 65 5 5 515 133 535 134 7 1
15 -11 19 -26z m18 -217 c20 -23 36 -49 36 -57 0 -8 -14 -41 -30 -74 l-29 -59
96 -116 c139 -166 124 -153 159 -136 16 8 49 17 74 21 44 6 46 5 84 -40 21
-25 35 -49 32 -52 -5 -5 -588 -142 -608 -143 -3 0 -29 26 -57 59 l-51 58 122
292 c67 160 125 291 129 291 4 0 24 -20 43 -44z m2066 -467 c69 -132 126 -246
128 -253 2 -9 -31 -31 -100 -64 -4 -2 -31 45 -60 105 -29 59 -54 110 -56 113
-2 2 -11 -1 -20 -7 -39 -27 -300 -162 -325 -168 -37 -10 -41 -21 -19 -53 11
-15 38 -63 60 -108 l40 -81 -55 -27 c-30 -15 -57 -26 -59 -24 -9 9 -254 489
-254 497 0 9 90 61 105 61 5 0 97 -182 107 -212 3 -8 13 -6 34 9 45 32 321
173 339 173 18 0 20 11 4 27 -6 6 -33 53 -59 104 l-48 93 46 28 c26 15 52 27
57 27 6 1 67 -107 135 -240z m-1300 -71 c68 -12 205 -76 243 -113 32 -30 28
-41 -27 -70 l-34 -19 -42 38 c-129 117 -403 130 -373 17 7 -28 65 -60 190
-106 174 -63 231 -115 220 -199 -7 -50 -56 -99 -114 -115 -93 -26 -265 -6
-362 43 -53 27 -111 73 -111 87 0 5 20 19 44 31 l45 21 40 -36 c43 -39 113
-64 201 -73 103 -10 164 50 107 104 -13 13 -78 43 -143 68 -194 73 -244 112
-244 186 0 54 21 89 69 117 73 40 153 46 291 19z"/>
<path d="M3124 4557 c0 -38 -8 -77 -17 -97 -10 -18 -16 -35 -14 -37 6 -6 232
-43 265 -43 39 0 87 23 96 45 13 36 6 82 -16 102 -36 32 -56 39 -175 62 -62
12 -119 24 -125 26 -10 4 -13 -12 -14 -58z"/>
<path d="M4090 2441 c-80 -25 -147 -89 -187 -180 -30 -67 -41 -171 -23 -225
25 -77 90 -126 167 -126 151 1 299 231 254 397 -26 95 -129 160 -211 134z"/>
<path d="M3640 1483 c-131 -147 -146 -188 -91 -244 57 -57 97 -40 235 99 l99
100 -37 17 c-32 16 -86 67 -111 108 -8 13 -24 0 -95 -80z"/>
<path d="M1110 1278 c0 -23 -76 -184 -104 -221 -33 -43 -20 -55 32 -28 41 21
186 61 221 61 12 0 21 2 21 5 0 8 -152 189 -162 193 -4 2 -8 -2 -8 -10z"/>
</g>
</svg>
