<svg xmlns="http://www.w3.org/2000/svg" viewBox="0 0 370.24 242.21"><defs><style>.cls-1{font-size:115.17px;}.cls-1,.cls-2{font-family:PoliteType;}.cls-2{font-size:30px;}</style></defs><g id="Ebene_2" data-name="Ebene 2"><g id="Ebene_1-2" data-name="Ebene 1"><text class="cls-1" transform="translate(47.15 97.04) rotate(10)">@</text><text class="cls-1" transform="matrix(0.98, 0.17, -0.17, 0.98, 189.25, 96.98)">@</text><text class="cls-2" transform="translate(6.66 125.19) rotate(81.49) scale(0.68 1)">C</text><text class="cls-2" transform="translate(9.76 143.15) rotate(67.86) scale(0.68 1)">H</text><text class="cls-2" transform="translate(16.84 159.56) rotate(56.82) scale(0.68 1)">R</text><text class="cls-2" transform="matrix(0.43, 0.53, -0.77, 0.63, 25.34, 172)">I</text><text class="cls-2" transform="translate(29.35 177.06) rotate(45.61) scale(0.68 1)">S</text><text class="cls-2" transform="matrix(0.53, 0.43, -0.64, 0.77, 39.13, 186.95)">T</text><text class="cls-2" transform="matrix(0.57, 0.38, -0.56, 0.83, 49.27, 195.37)">O</text><text class="cls-2" transform="translate(64.22 205.17) rotate(28.31) scale(0.68 1)">P</text><text class="cls-2" transform="translate(77.02 212.05) rotate(23.74) scale(0.68 1)">H</text><text class="cls-2" transform="translate(91.69 218.33) rotate(20.82) scale(0.68 1)">.</text><text class="cls-2" transform="translate(96.75 220.33) rotate(18.41) scale(0.68 1)">S</text><text class="cls-2" transform="translate(109.49 224.57) rotate(14.98) scale(0.68 1)">A</text><text class="cls-2" transform="translate(123.63 228.24) rotate(12.61) scale(0.68 1)">I</text><text class="cls-2" transform="matrix(0.67, 0.13, -0.18, 0.98, 129.24, 229.55)">L</text><text class="cls-2" transform="translate(141.41 231.82) rotate(7.78) scale(0.68 1)">E</text><text class="cls-2" transform="translate(154.69 233.56) rotate(5.58) scale(0.68 1)">(</text><text class="cls-2" transform="matrix(0.68, 0.04, -0.06, 1, 161.9, 234.33)">A</text><text class="cls-2" transform="translate(174.64 235.09) rotate(0.86) scale(0.68 1)">T</text><text class="cls-2" transform="matrix(0.68, -0.01, 0.02, 1, 188.21, 235.23)">)</text><text class="cls-2" transform="translate(195.73 235.15) rotate(-3.69) scale(0.68 1)">G</text><text class="cls-2" transform="translate(212.44 234.06) rotate(-7.25) scale(0.68 1)">O</text><text class="cls-2" transform="matrix(0.67, -0.13, 0.19, 0.98, 229.82, 231.83)">O</text><text class="cls-2" transform="matrix(0.66, -0.18, 0.26, 0.97, 247.03, 228.42)">G</text><text class="cls-2" transform="matrix(0.65, -0.22, 0.32, 0.95, 263.2, 224)">L</text><text class="cls-2" transform="translate(275.08 220.01) rotate(-22) scale(0.68 1)">E</text><text class="cls-2" transform="matrix(0.61, -0.31, 0.45, 0.89, 288.09, 214.85)">M</text><text class="cls-2" transform="translate(305.98 205.62) rotate(-32.55) scale(0.68 1)">A</text><text class="cls-2" transform="matrix(0.55, -0.4, 0.59, 0.81, 318.51, 197.42)">I</text><text class="cls-2" transform="translate(323.51 193.84) rotate(-40.1) scale(0.68 1)">L</text><text class="cls-2" transform="matrix(0.49, -0.48, 0.7, 0.72, 333.11, 185.56)">.</text><text class="cls-2" transform="translate(337.16 181.92) rotate(-49.21) scale(0.68 1)">C</text><text class="cls-2" transform="matrix(0.35, -0.59, 0.86, 0.51, 348.21, 169.03)">O</text><text class="cls-2" transform="translate(358.29 151.67) rotate(-73.67) scale(0.68 1)">M</text></g></g></svg>